<svg xmlns="http://www.w3.org/2000/svg" xmlns:xlink="http://www.w3.org/1999/xlink" style="position:absolute; width: 0; height: 0"><symbol viewBox="0 0 22.3105 22.3106" id="add"><path d="M11.155 22.311V0M0 11.155h22.311" data-name="Layer 1" fill="none" stroke="#fff" stroke-miterlimit="10"></path></symbol><symbol viewBox="0 0 46 46" id="back"><g data-name="Layer 1" fill="none"><circle cx="23.001" cy="23" r="22.5" stroke="#0bd8d8" stroke-miterlimit="10"></circle><path stroke-miterlimit="10" stroke="#fff" d="M17.301 23.001h11.397"></path><path stroke="#fff" stroke-linejoin="round" d="M22.148 18.153l-4.847 4.848 4.847 4.846"></path></g></symbol><symbol viewBox="0 0 12.00065 10.5" id="card-like-hover"><path d="M11.81 2.198a3.248 3.248 0 0 0-1.65-1.88A3.097 3.097 0 0 0 8.796 0a3.198 3.198 0 0 0-2.751 1.613.102.102 0 0 0-.023.046l-.057-.024-.001-.002-.005-.01A3.2 3.2 0 0 0 3.203.001a3.097 3.097 0 0 0-1.365.317 3.38 3.38 0 0 0-1.533 4.42c.546 1.203 3.347 3.944 4.968 5.471a1.053 1.053 0 0 0 1.451.002c1.622-1.528 4.423-4.27 4.97-5.473a3.406 3.406 0 0 0 .115-2.54z" fill="#0bd8d8" data-name="Layer 1"></path></symbol><symbol viewBox="0 0 12.00068 10.5" id="card-like"><path class="cls-1" d="M8.796 1a2.097 2.097 0 0 1 .925.217 2.254 2.254 0 0 1 1.144 1.31 2.41 2.41 0 0 1-.083 1.798c-.265.583-1.65 2.244-4.743 5.158l.686.728-.766-.73c-3.095-2.916-4.48-4.575-4.743-5.156a2.373 2.373 0 0 1 1.06-3.107A2.1 2.1 0 0 1 3.202 1 2.198 2.198 0 0 1 5.08 2.103a1.004 1.004 0 0 0 .083.13.993.993 0 0 0 .415.324l.057.024a1 1 0 0 0 1.288-.49A2.196 2.196 0 0 1 8.796 1m0-1a3.198 3.198 0 0 0-2.751 1.613.103.103 0 0 0-.023.046l-.057-.024-.002-.002-.004-.01A3.2 3.2 0 0 0 3.203.002a3.097 3.097 0 0 0-1.365.317 3.38 3.38 0 0 0-1.533 4.42c.546 1.203 3.347 3.944 4.968 5.471a1.053 1.053 0 0 0 1.452.002c1.621-1.527 4.422-4.27 4.968-5.472a3.402 3.402 0 0 0 .116-2.54 3.246 3.246 0 0 0-1.65-1.88A3.093 3.093 0 0 0 8.797 0z" fill="#879399" data-name="Layer 1"></path></symbol><symbol viewBox="0 0 19.25889 19.25793" id="close-hover"><path d="M18.905.354L.354 18.904m18.551 0L.354.354" data-name="Layer 1" fill="none" stroke="#0bd8d8" stroke-miterlimit="10"></path></symbol><symbol viewBox="0 0 19.25889 19.25793" id="close"><path d="M18.905.354L.354 18.904m18.551 0L.354.354" data-name="Layer 1" fill="none" stroke="#fff" stroke-miterlimit="10"></path></symbol><symbol viewBox="0 0 18.4628 15.1128" id="layout-hover"><g data-name="Layer 1" fill="none" stroke="#0bd8d8" stroke-miterlimit="10"><path d="M17.963 12.298v1.315a1.003 1.003 0 0 1-1 1H1.5a1.003 1.003 0 0 1-1-1v-1.315"></path><rect x=".5" y=".5" width="17.463" height="7.056" rx="1" ry="1"></rect></g></symbol><symbol viewBox="0 0 18.4628 15.1128" id="layout"><g data-name="Layer 1" fill="none" stroke="#fff" stroke-miterlimit="10"><path d="M17.963 12.298v1.315a1.003 1.003 0 0 1-1 1H1.5a1.003 1.003 0 0 1-1-1v-1.315"></path><rect x=".5" y=".5" width="17.463" height="7.056" rx="1" ry="1"></rect></g></symbol><symbol viewBox="0 0 32.82208 31.50086" id="logo"><g data-name="Layer 1"><path d="M8.955 31.5a1.5 1.5 0 0 1-1.45-1.12L.049 1.88a1.5 1.5 0 1 1 2.903-.76l7.455 28.5a1.501 1.501 0 0 1-1.452 1.88zm15.291-.048a1.5 1.5 0 0 0 1.072-1.831l-7.456-28.5a1.5 1.5 0 1 0-2.902.76l7.455 28.5a1.498 1.498 0 0 0 1.831 1.07z" fill="#0bd8d8"></path><path d="M16.411 7.428L10.506 30l-1.55-5.927L14.86 1.5zM31.701.049a1.5 1.5 0 0 0-1.83 1.072l-6.005 22.952 1.55 5.928L32.774 1.88A1.5 1.5 0 0 0 31.7.05z" fill="#00b5b5"></path><path d="M24.9 20.122l1.55 5.927L25.418 30l-1.55-5.927zM8.956 24.073l1.55 5.928 1.034-3.952-1.55-5.927z" opacity=".1"></path></g></symbol><symbol viewBox="0 0 50 50" id="open"><g data-name="Layer 1"><circle cx="25" cy="25" r="25" fill="#293840"></circle><path fill="none" stroke="#0bd8d8" stroke-miterlimit="10" d="M16.301 25h17.398"></path><path fill="none" stroke="#0bd8d8" stroke-linejoin="round" d="M25 16.301L33.699 25 25 33.699"></path></g></symbol><symbol viewBox="0 0 20.85347 20.85363" id="search"><g data-name="Layer 1" fill="none" stroke="#fff" stroke-miterlimit="10"><circle cx="11.078" cy="9.777" r="9.276"></circle><path d="M4.519 16.336L.353 20.5"></path></g></symbol><symbol viewBox="0 0 24 24" id="twitter"><path d="M23.444 4.834c-.814.363-1.5.375-2.228.016.938-.562.981-.957 1.32-2.019-.878.521-1.851.9-2.886 1.104a4.545 4.545 0 0 0-7.742 4.145 12.897 12.897 0 0 1-9.366-4.748 4.525 4.525 0 0 0-.615 2.285c0 1.577.803 2.967 2.021 3.782a4.527 4.527 0 0 1-2.057-.568l-.001.057a4.547 4.547 0 0 0 3.646 4.456 4.575 4.575 0 0 1-2.053.079 4.551 4.551 0 0 0 4.245 3.155A9.138 9.138 0 0 1 1 18.459 12.865 12.865 0 0 0 7.966 20.5c8.358 0 12.928-6.924 12.928-12.929 0-.198-.003-.393-.012-.588.887-.64 1.953-1.237 2.562-2.149z"></path></symbol><symbol viewBox="0 0 26.2607 27.07023" id="widget-feed"><g data-name="Layer 1" fill="none" stroke-miterlimit="10"><path stroke="#0bd8d8" d="M0 14.706h3.223L8.121 1.847l4.265 23.178 4.624-14.393h9.251"></path><path stroke="#fff" d="M26.261 14.913h-8.038m8.038-8.587h-8.038m8.038 12.71h-8.038"></path></g></symbol></svg>