<svg xmlns="http://www.w3.org/2000/svg" viewBox="0 0 12.00065 10.5"><g id="Layer_2" data-name="Layer 2"><g id="Layer_1-2" data-name="Layer 1"><path style="fill:#0bd8d8;" d="M11.80928,2.198A3.24786,3.24786,0,0,0,10.15988.3181,3.09717,3.09717,0,0,0,8.79568,0a3.19834,3.19834,0,0,0-2.751,1.6133.10212.10212,0,0,0-.0229.0457l-.0572-.0237-.001-.0022-.0048-.0098A3.1999,3.1999,0,0,0,3.20288.001a3.09717,3.09717,0,0,0-1.3652.3171A3.37931,3.37931,0,0,0,.30538,4.7385c.5459,1.2024,3.3467,3.9437,4.9678,5.471a1.05341,1.05341,0,0,0,1.4512.0015c1.6216-1.5276,4.4224-4.2701,4.9687-5.4725A3.40634,3.40634,0,0,0,11.80928,2.198Z"/></g></g></svg>