<svg xmlns="http://www.w3.org/2000/svg" viewBox="0 0 12.00068 10.5"><g id="Layer_2" data-name="Layer 2"><g id="Layer_1-2" data-name="Layer 1"><path class="cls-1" style="fill:#879399;" d="M8.79582,1a2.09709,2.09709,0,0,1,.92529.21729,2.25357,2.25357,0,0,1,1.14355,1.30957,2.41075,2.41075,0,0,1-.08252,1.79834c-.26465.583-1.64941,2.24414-4.74316,5.15771l.68555.728L5.9589,9.48145C2.86369,6.56543,1.47941,4.90576,1.21574,4.3252A2.37273,2.37273,0,0,1,2.27531,1.21777,2.10061,2.10061,0,0,1,3.203,1.001,2.19792,2.19792,0,0,1,5.08146,2.104a1.00417,1.00417,0,0,0,.083.13037.99348.99348,0,0,0,.41406.32324l.05713.02393a1.00074,1.00074,0,0,0,1.28809-.49023A2.19578,2.19578,0,0,1,8.79582,1m0-1a3.1977,3.1977,0,0,0-2.751,1.61328.10279.10279,0,0,0-.02295.0459l-.05713-.02393-.00146-.002L5.9589,1.62354A3.20062,3.20062,0,0,0,3.203.001,3.09687,3.09687,0,0,0,1.83781.31836,3.37993,3.37993,0,0,0,.3051,4.73877c.5459,1.20215,3.34717,3.94336,4.96826,5.4707a1.05326,1.05326,0,0,0,1.45117.00146c1.62158-1.52734,4.42236-4.27,4.96826-5.47217A3.40246,3.40246,0,0,0,11.809,2.19824,3.24555,3.24555,0,0,0,10.15959.31836,3.09325,3.09325,0,0,0,8.79582,0Z"/></g></g></svg>