<?xml version="1.0" encoding="UTF-8"?>
<svg width="32px" height="32px" viewBox="0 0 32 32" version="1.1" xmlns="http://www.w3.org/2000/svg" xmlns:xlink="http://www.w3.org/1999/xlink">
    <defs></defs>
    <g id="Symbols" stroke="none" stroke-width="1" fill="none" fill-rule="evenodd">
        <g id="duplicate---medium">
            <g id="Duplicate">
                <rect id="Rectangle-3" opacity="0" x="0" y="0" width="32" height="32"></rect>
                <g id="Group-8" transform="translate(6.000000, 6.000000)">
                    <path d="M3,10.187 L1,10.187 C0.45,10.187 0,9.737 0,9.187 L0,1 C0,0.451 0.45,0 1,0 L9.186,0 C9.735,0 10.186,0.451 10.186,1 L10.186,3" id="Stroke-95"></path>
                    <path d="M19.109,18.112 C19.109,18.662 18.659,19.112 18.109,19.112 L6,19.112 C5.45,19.112 5,18.662 5,18.112 L5,6 C5,5.451 5.45,5 6,5 L18.109,5 C18.659,5 19.109,5.451 19.109,6 L19.109,18.112 Z" id="Stroke-97"></path>
                    <path d="M12,8 L12,16.03" id="Stroke-99"></path>
                    <path d="M16.029,12 L8,12" id="Stroke-101"></path>
                </g>
            </g>
        </g>
    </g>
</svg>
