<?xml version="1.0" encoding="UTF-8"?>
<svg width="32px" height="32px" viewBox="0 0 32 32" version="1.1" xmlns="http://www.w3.org/2000/svg" xmlns:xlink="http://www.w3.org/1999/xlink">
    <defs></defs>
    <g id="Symbols" stroke="none" stroke-width="1" fill="none" fill-rule="evenodd">
        <g id="Medium-/-Logo-/-github-(black)" fill="#000000">
            <path d="M15.9984169,3 C8.82058047,3 3,8.81952507 3,16.0005277 C3,21.7430079 6.72348285,26.6158311 11.8897098,28.3350923 C12.5408971,28.4532982 12.7783641,28.0522427 12.7783641,27.7092348 C12.7783641,27.4 12.7656992,26.5831135 12.7604222,25.4970976 C9.14459103,26.2833773 8.38153034,23.7556728 8.38153034,23.7556728 C7.79050132,22.2527704 6.93773087,21.8527704 6.93773087,21.8527704 C5.75672823,21.046438 7.02744063,21.0633245 7.02744063,21.0633245 C8.33192612,21.1551451 9.01899736,22.4026385 9.01899736,22.4026385 C10.1778364,24.3889182 12.0617414,23.8158311 12.8015831,23.4823219 C12.9197889,22.6432718 13.255409,22.0701847 13.6258575,21.7451187 C10.7403694,21.4158311 7.70501319,20.3023747 7.70501319,15.3197889 C7.70501319,13.9013193 8.2116095,12.7403694 9.04327177,11.8306069 C8.90923483,11.5034301 8.46490765,10.1810026 9.17203166,8.39102902 C9.17203166,8.39102902 10.2622691,8.04168865 12.7456464,9.72401055 C13.7831135,9.43588391 14.8944591,9.29129288 16.0005277,9.28601583 C17.1055409,9.29129288 18.2168865,9.43588391 19.255409,9.72401055 C21.7366755,8.04168865 22.8258575,8.39102902 22.8258575,8.39102902 C23.5361478,10.1810026 23.0897098,11.5034301 22.9556728,11.8306069 C23.7894459,12.7403694 24.2918206,13.9013193 24.2918206,15.3197889 C24.2918206,20.3129288 21.2522427,21.4126649 18.3572559,21.7345646 C18.8237467,22.1366755 19.2395778,22.9292876 19.2395778,24.1430079 C19.2395778,25.8802111 19.2237467,27.2828496 19.2237467,27.7092348 C19.2237467,28.0564644 19.4580475,28.460686 20.1176781,28.3340369 C25.2775726,26.6105541 29,21.7419525 29,16.0005277 C29,8.81952507 23.1783641,3 15.9984169,3" id="Fill-142"></path>
        </g>
    </g>
</svg>
