<svg width="32px" height="32px" viewBox="1080 144 32 32" version="1.1" xmlns="http://www.w3.org/2000/svg" xmlns:xlink="http://www.w3.org/1999/xlink">
    <g id="Medium-/-Layout-/-(white)" stroke="none" fill="none" opacity="0.64" transform="translate(1080.000000, 144.000000)" fill-rule="evenodd">
        <path d="M26.0153981,8.41869147 C26.0153981,8.07049435 25.7352607,7.78789958 25.3900914,7.78789958 L6.05060429,7.78789958 C5.70793619,7.78789958 5.42529754,8.07049435 5.42529754,8.41869147 L5.42529754,14.7972591 C5.42529754,15.1454562 5.70793619,15.428051 6.05060429,15.428051 L25.3900914,15.428051 C25.7352607,15.428051 26.0153981,15.1454562 26.0153981,14.7972591 L26.0153981,8.41869147 Z M27.2660116,8.41869147 L27.2660116,14.7972591 C27.2660116,15.8405889 26.4243487,16.6896348 25.3900914,16.6896348 L6.05060429,16.6896348 C5.01634693,16.6896348 4.17468405,15.8405889 4.17468405,14.7972591 L4.17468405,8.41869147 C4.17468405,7.3741001 5.01634693,6.52631579 6.05060429,6.52631579 L25.3900914,6.52631579 C26.4243487,6.52631579 27.2660116,7.3741001 27.2660116,8.41869147 L27.2660116,8.41869147 Z M26.0153981,22.0400116 L27.2660116,22.0400116 L27.2660116,23.7002559 C27.2660116,24.7423241 26.4243487,25.5926316 25.3900914,25.5926316 L6.05060429,25.5926316 C5.01634693,25.5926316 4.17468405,24.7423241 4.17468405,23.7002559 L4.17468405,22.0400116 L5.42529754,22.0400116 L5.42529754,23.7002559 C5.42529754,24.048453 5.70793619,24.3310478 6.05060429,24.3310478 L25.3900914,24.3310478 C25.7352607,24.3310478 26.0153981,24.048453 26.0153981,23.7002559 L26.0153981,22.0400116 Z" id="Fill-157" fill="#FFFFFF"></path>
    </g>
</svg>
