<svg xmlns="http://www.w3.org/2000/svg" viewBox="0 0 32.82208 31.50086"><g id="Layer_2" data-name="Layer 2"><g id="Layer_1-2" data-name="Layer 1"><path style="fill:#0bd8d8;" d="M8.95474,31.50086a1.50056,1.50056,0,0,1-1.4502-1.12076L.04922,1.8801a1.5,1.5,0,1,1,2.90234-.75922l7.45532,28.5a1.50125,1.50125,0,0,1-1.45215,1.88ZM24.246,31.45167a1.49989,1.49989,0,0,0,1.07153-1.83078l-7.45532-28.5a1.5,1.5,0,1,0-2.90234.75922l7.45532,28.5A1.49838,1.49838,0,0,0,24.246,31.45167Z"/><path style="fill:#00b5b5;" d="M16.411,7.42774,10.50625,30.00049,8.95572,24.07325,14.8605,1.50049ZM31.70132.04932a1.50083,1.50083,0,0,0-1.83081,1.07129L23.86636,24.07325l1.55054,5.92725,7.356-28.12061A1.49967,1.49967,0,0,0,31.70132.04932Z"/><path style="opacity:0.1;" d="M24.90005,20.12208l1.55054,5.92725L25.4169,30.00049l-1.55054-5.92725ZM8.95572,24.07325l1.55054,5.92725,1.03369-3.95117L9.98941,20.12208Z"/></g></g></svg>