<?xml version="1.0" encoding="UTF-8"?>
<svg width="32px" height="32px" viewBox="0 0 32 32" version="1.1" xmlns="http://www.w3.org/2000/svg" xmlns:xlink="http://www.w3.org/1999/xlink">
    <g id="Symbols" stroke="none" stroke-width="1" fill="none" fill-rule="evenodd">
        <g id="medium-/-dot-dot-dot-/-horizontal">
            <path d="M7.915,14 C8.973,14 9.83,14.895 9.83,16 C9.83,17.104 8.973,18 7.915,18 C6.857,18 6,17.104 6,16 C6,14.895 6.857,14 7.915,14 M16,14 C17.058,14 17.915,14.895 17.915,16 C17.915,17.104 17.058,18 16,18 C14.942,18 14.085,17.104 14.085,16 C14.085,14.895 14.942,14 16,14 M24.085,14 C25.142,14 26,14.895 26,16 C26,17.104 25.142,18 24.085,18 C23.026,18 22.17,17.104 22.17,16 C22.17,14.895 23.026,14 24.085,14" id="Fill-65-Copy"></path>
        </g>
    </g>
</svg>
