<?xml version="1.0" encoding="UTF-8"?>
<svg width="32px" height="32px" viewBox="0 0 32 32" version="1.1" xmlns="http://www.w3.org/2000/svg" xmlns:xlink="http://www.w3.org/1999/xlink">
    <!-- Generator: Sketch 46.2 (44496) - http://www.bohemiancoding.com/sketch -->
    <title>settings</title>
    <desc>Created with Sketch.</desc>
    <defs></defs>
    <g id="Page-1" stroke="none" stroke-width="1" fill="none" fill-rule="evenodd">
        <g id="settings" transform="translate(7.000000, 7.000000)">
            <circle id="inner-circle" cx="9" cy="9" r="3"></circle>
            <path d="M9,18 C9.6010468,18 10.188333,17.94108 10.756398,17.828706 L10.701488,15.791769 C10.812917,15.763949 10.92329,15.733449 11.032533,15.700349 C11.142472,15.667039 11.251267,15.631109 11.358846,15.59261 C11.46695,15.55393 11.573826,15.51266 11.679398,15.468882 C11.78541,15.424922 11.890106,15.378432 11.993414,15.32949 C12.097125,15.28036 12.199437,15.228746 12.300271,15.174739 C12.401402,15.120579 12.501047,15.063997 12.59913,15.005085 L14.000363,16.484208 C14.491162,16.155643 14.947841,15.780081 15.363961,15.363961 C15.780081,14.947841 16.155643,14.491162 16.484208,14.000363 L15.005088,12.599127 C15.063998,12.501047 15.120577,12.401399 15.174742,12.300268 C15.228752,12.199434 15.280358,12.097122 15.329493,11.993411 C15.378433,11.890103 15.424923,11.785407 15.468885,11.679395 C15.512665,11.573823 15.553925,11.466947 15.592613,11.358843 C15.631113,11.251264 15.667043,11.142469 15.700352,11.03253 C15.733442,10.923287 15.763942,10.812914 15.791772,10.701485 L17.828706,10.756395 C17.94108,10.188333 18,9.6010468 18,9 C18,8.3989532 17.941082,7.8116675 17.828706,7.2436034 L15.791772,7.2985094 C15.763944,7.1870825 15.733447,7.07671 15.700352,6.9674668 C15.667047,6.8575278 15.631109,6.7487326 15.592613,6.6411544 C15.553929,6.5330497 15.512662,6.426174 15.468885,6.3206017 C15.424926,6.2145905 15.378437,6.1098936 15.329493,6.0065862 C15.280358,5.9028746 15.228749,5.8005634 15.174742,5.6997289 C15.120577,5.5985984 15.064,5.4989532 15.005088,5.4008703 L16.484208,3.999637 C16.155643,3.5088381 15.780081,3.0521593 15.363961,2.636039 C14.947841,2.2199187 14.491162,1.8443569 14.000363,1.515792 L12.59913,2.9949123 C12.501047,2.9360002 12.401402,2.879423 12.300271,2.8252576 C12.199437,2.7712508 12.097125,2.7196417 11.993414,2.6705066 C11.890106,2.621563 11.78541,2.5750742 11.679398,2.5311154 C11.573826,2.4873385 11.46695,2.4460708 11.358846,2.4073866 C11.251267,2.3688908 11.142472,2.3329534 11.032533,2.2996477 C10.92329,2.2665528 10.812917,2.2360564 10.701488,2.2082305 L10.756398,0.17129429 C10.188333,0.05891825 9.6010468,0 9,0 C8.3989532,0 7.8116675,0.05891825 7.2436034,0.17129429 L7.2985122,2.2082335 C7.1870825,2.2360564 7.07671,2.2665528 6.9674668,2.2996477 C6.8575278,2.3329534 6.7487326,2.3688908 6.6411544,2.4073866 C6.5330497,2.4460708 6.426174,2.4873385 6.3206017,2.5311154 C6.2145905,2.5750742 6.1098936,2.621563 6.0065862,2.6705066 C5.9028746,2.7196417 5.8005634,2.7712508 5.6997289,2.8252576 C5.5985984,2.879423 5.4989532,2.9360002 5.4008703,2.9949123 L3.999637,1.515792 C3.5088381,1.8443569 3.0521593,2.2199187 2.636039,2.636039 C2.2199187,3.0521593 1.8443569,3.5088381 1.515792,3.999637 L2.9949123,5.4008703 C2.9360002,5.4989532 2.879423,5.5985984 2.8252576,5.6997289 C2.7712508,5.8005634 2.7196417,5.9028746 2.6705066,6.0065862 C2.621563,6.1098936 2.5750742,6.2145905 2.5311154,6.3206017 C2.4873385,6.426174 2.4460708,6.5330497 2.4073866,6.6411544 C2.3688908,6.7487326 2.3329534,6.8575278 2.2996477,6.9674668 C2.2665528,7.07671 2.2360564,7.1870825 2.2082305,7.2985124 L0.17129429,7.2436034 C0.05891825,7.8116675 0,8.3989532 0,9 C0,9.6010468 0.05891825,10.188333 0.17129429,10.756397 L2.2082305,10.701487 C2.2360565,10.812916 2.2665525,10.923289 2.2996475,11.032532 C2.3329535,11.142471 2.3688905,11.251266 2.4073864,11.358845 C2.4460704,11.466949 2.4873384,11.573825 2.5311152,11.679397 C2.5750742,11.785409 2.6215632,11.890105 2.6705064,11.993413 C2.7196414,12.097124 2.7712506,12.199436 2.8252574,12.30027 C2.8794224,12.401401 2.936,12.501046 2.9949121,12.599129 L1.515792,14.000363 C1.8443569,14.491162 2.2199187,14.947841 2.636039,15.363961 C3.0521593,15.780081 3.5088381,16.155643 3.999637,16.484208 L5.4008701,15.005088 C5.4989531,15.063998 5.5985982,15.120577 5.6997287,15.174742 C5.8005632,15.228752 5.9028744,15.280358 6.006586,15.329493 C6.1098934,15.378433 6.2145903,15.424923 6.3206015,15.468885 C6.4261738,15.512665 6.5330495,15.553925 6.6411542,15.592613 C6.7487324,15.631113 6.8575276,15.667043 6.9674666,15.700352 C7.0767098,15.733442 7.1870823,15.763942 7.2985122,15.791772 L7.2436032,17.828706 C7.8116675,17.941082 8.3989532,18 9,18 L9,18 Z" id="outer-cog"></path>
        </g>
    </g>
</svg>