<svg width="32px" height="32px" viewBox="659 74 32 32" version="1.1" xmlns="http://www.w3.org/2000/svg" xmlns:xlink="http://www.w3.org/1999/xlink">
    <defs>
        <rect id="path-1" x="4" y="4" width="24" height="24"></rect>
        <mask id="mask-2" maskContentUnits="userSpaceOnUse" maskUnits="objectBoundingBox" x="0" y="0" width="24" height="24" fill="white">
            <use xlink:href="#path-1"></use>
        </mask>
    </defs>
    <g transform="translate(659.000000, 74.000000)">
        <use id="Rectangle-14"  mask="url(#mask-2)" stroke-width="1" xlink:href="#path-1"></use>
        <path d="M25,7.5 L25,7 L18,7 L18,8 L24,8 L24,14 L25,14 L25,7.5 Z" id="Combined-Shape" fill-rule="evenodd"></path>
        <path d="M8,24 L14,24 L14,25 L7,25 L7,24.5 L7,18 L8,18 L8,24 Z" id="Combined-Shape" fill-rule="evenodd"></path>
        <rect id="Rectangle-Copy-2" fill-rule="evenodd" transform="translate(21.444544, 10.555456) rotate(-315.000000) translate(-21.444544, -10.555456) " x="20.9445436" y="6.39124279" width="1" height="8.32842712"></rect>
        <rect id="Rectangle-Copy-2" fill-rule="evenodd" transform="translate(10.444544, 21.555456) rotate(-315.000000) translate(-10.444544, -21.555456) " x="9.94454365" y="17.3912428" width="1" height="8.32842712"></rect>
    </g>
</svg>
