<?xml version="1.0" encoding="UTF-8"?>
<svg width="32px" height="32px" viewBox="0 0 32 32" version="1.1" xmlns="http://www.w3.org/2000/svg" xmlns:xlink="http://www.w3.org/1999/xlink">
    <!-- Generator: Sketch 46.2 (44496) - http://www.bohemiancoding.com/sketch -->
    <title>size</title>
    <desc>Created with Sketch.</desc>
    <defs></defs>
    <g id="Page-1" stroke="none" stroke-width="1" fill="none" fill-rule="evenodd">
        <g id="size" transform="translate(7.000000, 7.000000)">
            <polyline id="Path" points="0 6.74967198 0 8.99956264 0 11.2494533 0 13.499344 0 15.7492346 0 17.9991253 0 17.9991253 2.25 17.9991253 4.5 17.9991253 6.75 17.9991253 9 17.9991253 11.25 17.9991253"></polyline>
            <polyline id="Path" points="13.5 17.9991253 15.75 17.9991253 18 17.9991253 18 15.7492346 18 13.499344"></polyline>
            <polyline id="Path" points="18 11.2494533 18 8.99956264 18 6.74967198"></polyline>
            <polyline id="Path" points="18 4.49978132 18 2.24989066 18 0 15.75 0 13.5 0"></polyline>
            <polyline id="Path" points="11.25 0 9 0 6.75 0"></polyline>
            <polyline id="Path" points="4.5 0 2.25 0 0 0 0 2.24989066 0 4.49978132"></polyline>
            <polyline id="Stroke-203" transform="translate(9.818182, 8.181818) rotate(180.000000) translate(-9.818182, -8.181818) " points="6.9545458 5.3181815 6.9545458 11.0454542 12.6818185 11.0454542"></polyline>
            <path d="M8.1489307,9.82325145 L12.2727276,5.69945454" id="Stroke-205" transform="translate(10.210829, 7.761353) rotate(180.000000) translate(-10.210829, -7.761353) "></path>
            <rect id="Rectangle" x="0" y="10" width="8" height="8"></rect>
        </g>
    </g>
</svg>