<?xml version="1.0" encoding="UTF-8"?>
<svg width="32px" height="32px" viewBox="0 0 32 32" version="1.1" xmlns="http://www.w3.org/2000/svg" xmlns:xlink="http://www.w3.org/1999/xlink">
    <g id="Symbols" stroke="none" stroke-width="1" fill="none" fill-rule="evenodd">
        <g id="theme---medium">
            <g id="Theme">
                <rect id="Rectangle-3-Copy" opacity="0" x="0" y="0" width="32" height="32"></rect>
                <path d="M10.356,16.6072506 C10.356,16.2362506 10.497,15.8672506 10.778,15.5862506 L16.34,10.0212506 C16.907,9.45625063 17.817,9.45625063 18.383,10.0212506 L23.946,15.5862506 C24.229,15.8672506 24.37,16.2362506 24.37,16.6072506 L10.356,16.6072506 Z M25.018,14.4852506 L19.454,8.92025063 C19.083,8.54925063 18.637,8.29725063 18.168,8.16425063 L19.039,7.29425063 C19.336,6.99425063 19.335,6.51625063 19.041,6.22225063 C18.741,5.92525063 18.262,5.92625063 17.966,6.22325063 L14.356,9.83525063 C14.34,9.84825063 14.327,9.86225063 14.315,9.87825063 L9.708,14.4852506 C8.551,15.6412506 8.551,17.5142506 9.708,18.6672506 L15.272,24.2332506 C16.428,25.3902506 18.298,25.3852506 19.454,24.2332506 L25.018,18.6672506 C26.176,17.5122506 26.173,15.6392506 25.018,14.4852506 L25.018,14.4852506 Z M6,24.4662506 C6,25.8572506 7.065,26.9942506 8.367,26.9942506 C9.669,26.9942506 10.734,25.8572506 10.734,24.4662506 C10.734,23.0782506 8.367,19.4192506 8.367,19.4192506 C8.367,19.4192506 6,23.0782506 6,24.4662506 L6,24.4662506 Z" id="Fill-111"></path>
            </g>
        </g>
    </g>
</svg>
