<svg width="32px" height="32px" viewBox="760 144 32 32" version="1.1" xmlns="http://www.w3.org/2000/svg" xmlns:xlink="http://www.w3.org/1999/xlink">
    <g id="Medium-/-Undo-/-(white)" stroke="none" fill="none" transform="translate(760.000000, 144.000000)" fill-rule="evenodd">
        <path d="M19.4037334,26.523 C14.2607529,26.523 10.0760092,22.3403016 10.0760092,17.1983438 L11.0986739,17.1983438 C11.0986739,21.7768134 14.8252638,25.5003354 19.4037334,25.5003354 C23.982203,25.5003354 27.7057249,21.7768134 27.7057249,17.1983438 C27.7057249,12.6188516 23.982203,8.89430695 19.4037334,8.89430695 L4.95840278,8.89430695 L7.10497586,11.04088 L6.3809293,11.7628813 L3,8.38297463 L6.3809293,5 L7.10497586,5.72404656 L4.95840278,7.87164231 L19.4037334,7.87164231 C24.5467139,7.87164231 28.7283896,12.0543407 28.7283896,17.1983438 C28.7283896,22.3403016 24.5467139,26.523 19.4037334,26.523 Z" id="Fill-158" fill="#FFFFFF"></path>
    </g>
</svg>
